<svg width="15" height="16" viewBox="0 0 15 16" fill="none" xmlns="http://www.w3.org/2000/svg">
<path opacity="0.5" d="M12.8 1.6H12V0H10.4V1.6H4V0H2.4V1.6H1.6C0.712 1.6 0 2.32 0 3.2V14.4C0 14.8243 0.168571 15.2313 0.468629 15.5314C0.768687 15.8314 1.17565 16 1.6 16H12.8C13.2243 16 13.6313 15.8314 13.9314 15.5314C14.2314 15.2313 14.4 14.8243 14.4 14.4V3.2C14.4 2.77565 14.2314 2.36869 13.9314 2.06863C13.6313 1.76857 13.2243 1.6 12.8 1.6ZM12.8 14.4H1.6V6.4H12.8V14.4ZM12.8 4.8H1.6V3.2H12.8V4.8Z" fill="white"/>
</svg>
